<svg id="Layer_1" data-name="Layer 1" xmlns="http://www.w3.org/2000/svg" viewBox="0 0 230.13 152.14"><defs><style>.cls-1{fill:#231f20;}.cls-2{fill:#791def;}</style></defs><title>Registration Page LOGO</title><path class="cls-1" d="M10.78,200.47V176.91H13.5l7.79,12,8-12H32v23.56H29.47V181.11l-8.18,12-8.18-12v19.36Z" transform="translate(-10.78 -48.93)"/><path class="cls-1" d="M43.1,190.89V177.11h2.53v14c0,5,2.33,7.39,6.81,7.39s6.82-2.4,6.82-7.39v-14h2.53v13.78c0,3.19-.78,5.79-2.34,7.39-1.56,1.79-3.89,2.59-7,2.59s-5.26-.8-7-2.59C43.87,196.48,43.1,194.08,43.1,190.89Z" transform="translate(-10.78 -48.93)"/><path class="cls-1" d="M71.91,183.3a5.82,5.82,0,0,1,2-4.59,8.79,8.79,0,0,1,6-2,12.51,12.51,0,0,1,5.84,1.4v2.6a10.55,10.55,0,0,0-5.45-1.4,8.5,8.5,0,0,0-4.28,1,3.18,3.18,0,0,0-1.36,3,2.82,2.82,0,0,0,1,2A4.37,4.37,0,0,0,78,186.5a29.42,29.42,0,0,1,3.11,1,15,15,0,0,1,3.12,1.4,5,5,0,0,1,2.33,2.2,7,7,0,0,1,1,3.59,5.7,5.7,0,0,1-2.15,4.59c-1.36,1.2-3.5,1.6-6,1.6a15.62,15.62,0,0,1-6.82-1.6v-2.79a11.77,11.77,0,0,0,6.62,1.8c3.9,0,5.84-1.2,5.84-3.8a3.8,3.8,0,0,0-1-2.59,4.92,4.92,0,0,0-2.34-1.6l-3.11-1c-1.17-.4-2.14-.8-3.12-1.2a5.29,5.29,0,0,1-2.33-1.79A3.46,3.46,0,0,1,71.91,183.3Z" transform="translate(-10.78 -48.93)"/><path class="cls-1" d="M97.22,200.47V176.91h2.53v23.56Z" transform="translate(-10.78 -48.93)"/><path class="cls-1" d="M109.88,188.69c0-8,3.5-12,10.7-12a16.31,16.31,0,0,1,7,1.4v2.4a16,16,0,0,0-6.81-1.4q-4.38,0-6.43,2.39c-1.36,1.6-1.94,4-1.94,7.39s.58,5.79,1.94,7.39,3.51,2.4,6.43,2.4a16,16,0,0,0,6.81-1.4v2.39a19.76,19.76,0,0,1-6.81,1.4h0C113.38,200.87,109.88,196.88,109.88,188.69Z" transform="translate(-10.78 -48.93)"/><path class="cls-1" d="M137.13,200.47V176.91h8.37a8.56,8.56,0,0,1,5.84,1.8,6.12,6.12,0,0,1,1.95,5,11.82,11.82,0,0,1-.39,2.8,19.57,19.57,0,0,1-1,2,8.72,8.72,0,0,1-1.36,1.2,2.59,2.59,0,0,1-1.37.6,1.7,1.7,0,0,1-1,.2l6.23,9.78h-2.92l-6-9.58h-5.84v9.58h-2.53Zm2.53-11.78h5.84a11.42,11.42,0,0,0,2.92-.4,2.88,2.88,0,0,0,1.76-1.19,5.18,5.18,0,0,0,.78-1.4,6.83,6.83,0,0,0,0-3.2,5,5,0,0,0-.78-1.39,6.84,6.84,0,0,0-1.76-1.2,11.42,11.42,0,0,0-2.92-.4h-5.84Z" transform="translate(-10.78 -48.93)"/><path class="cls-1" d="M162.44,188.69c0-8,3.51-12,10.71-12,7,0,10.71,4,10.71,12s-3.51,12-10.71,12C166,200.87,162.44,196.88,162.44,188.69Zm4.48-7.19c-1.36,1.6-1.95,4-1.95,7.39s.59,5.79,1.95,7.39,3.31,2.4,6.23,2.4,4.87-.8,6.23-2.4,2-4,2-7.39-.59-5.79-2-7.39-3.31-2.39-6.23-2.39S168.28,179.91,166.92,181.5Z" transform="translate(-10.78 -48.93)"/><path class="cls-1" d="M193.79,200.47V176.91h2.72l13.63,19.77V176.91h2.53v23.56H210l-13.63-19.76v19.76Z" transform="translate(-10.78 -48.93)"/><path class="cls-1" d="M221.43,177.11h2.92l6.82,10.18L238,177.11h2.92l-8.56,12.78v10.78h-2.53V189.89Z" transform="translate(-10.78 -48.93)"/><polygon class="cls-2" points="173.66 0.2 139.59 0.2 136.48 0.2 130.64 0.2 130.64 51.51 112.34 51.51 112.34 70.08 139.59 70.08 139.59 60.7 139.59 51.51 139.59 27.15 163.54 27.15 173.66 0.2"/><polygon class="cls-2" points="138.23 90.45 143.1 80.46 109.61 80.46 84.5 27.55 108.44 27.55 117.01 0.2 71.65 0.2 71.65 0.4 71.45 0 59.19 33.34 105.33 90.45 138.23 90.45"/></svg>