<svg id="Layer_1"
     data-name="Layer 1"
     xmlns="http://www.w3.org/2000/svg"
     viewBox="0 0 2272 457.8">
	<defs>
		<style>.cls-1{fill:#231f20;}.cls-2{fill:#791def;}</style>
	</defs>
	<title>SVG LOGO file for Tool</title>
	<path class="cls-1"
	      d="M671.36,300.81V141.3h18.69l54.76,81,55-81h18.68V300.81H801.21V169.57l-56.4,81.26-56.16-81.26V300.81Z"
	      transform="translate(0 0.01)"/>
	<path class="cls-1"
	      d="M896.29,235.3v-94h17.28v94.94q0,50.67,47.59,50.67t47.58-50.67V141.3H1026v94q0,32.81-16.81,50.1T961.1,302.69q-31.29,0-48.06-17.34T896.29,235.3Z"
	      transform="translate(0 0.01)"/>
	<path class="cls-1"
	      d="M1096.22,183.58a42.11,42.11,0,0,1,13.38-31.42q13.38-13,41.67-12.95a91.14,91.14,0,0,1,39.94,9.45v17.75a76.6,76.6,0,0,0-38.3-10q-19.12,0-29.26,7t-10.15,20.21a17.09,17.09,0,0,0,6.59,13.66,42.44,42.44,0,0,0,16.26,8.12q9.68,2.63,21.19,6.71a191.4,191.4,0,0,1,21.16,8.87A41.64,41.64,0,0,1,1195,235.76q6.6,10.06,6.6,24.41,0,19.84-15,31.18t-41.73,11.34q-26.07,0-47.23-11.22V272.8q18.94,12.72,45.95,12.71,40.58,0,40.69-25.34,0-10.73-6.59-18a38.59,38.59,0,0,0-16.26-10.67l-21.1-7q-11.43-3.75-21.15-7.6a38.25,38.25,0,0,1-16.33-12.31Q1096.21,196.07,1096.22,183.58Z"
	      transform="translate(0 0.01)"/>
	<path class="cls-1"
	      d="M1272.57,300.81V141.3h17.28V300.81Z"
	      transform="translate(0 0.01)"/>
	<path class="cls-1"
	      d="M1360.06,220.94q0-81.72,74-81.73a129.31,129.31,0,0,1,48.58,9.22V165a119.69,119.69,0,0,0-46.71-9.57q-30.36,0-44.49,15.75t-14.13,49.75q0,34,14.13,49.74T1436,286.45a119.51,119.51,0,0,0,46.71-9.35v16.59a130.21,130.21,0,0,1-48,9h-.58Q1360.06,302.69,1360.06,220.94Z"
	      transform="translate(0 0.01)"/>
	<path class="cls-1"
	      d="M1550.64,300.81V141.3h58.61q26.05,0,40.06,11.87t14,34.49a51.21,51.21,0,0,1-3.26,18.69,43.78,43.78,0,0,1-7.42,13.08,41.82,41.82,0,0,1-9.87,8.11,45.08,45.08,0,0,1-9.34,4.55c-2.41.74-4.67,1.35-6.77,1.81l43.78,66.91h-20.31l-41.58-64.33h-40.64v64.33Zm17.27-80.56h40.42c7.93,0,14.56-.93,19.9-2.75s9.2-4.39,11.62-7.65a29.06,29.06,0,0,0,4.9-9.69,50.25,50.25,0,0,0,0-22.54,29.06,29.06,0,0,0-4.9-9.69q-3.63-4.91-11.62-7.65t-19.9-2.75h-40.42Z"
	      transform="translate(0 0.01)"/>
	<path class="cls-1"
	      d="M1726.41,220.94q0-81.72,74-81.73t74.09,81.73q0,81.75-74.09,81.75T1726.41,220.94Zm30.94-49.75q-13.66,15.78-13.65,49.75t13.65,49.74q13.64,15.78,43,15.77,29.63,0,43.22-15.77t13.59-49.74q0-34-13.59-49.75t-43.22-15.75Q1771,155.44,1757.35,171.19Z"
	      transform="translate(0 0.01)"/>
	<path class="cls-1"
	      d="M1943.86,300.81V141.3h19.62l95.16,134.4V141.3h17.29V300.81h-19.39l-95.4-134.4v134.4Z"
	      transform="translate(0 0.01)"/>
	<path class="cls-1"
	      d="M2135.85,141.3h20.79L2204,210.89l47.23-69.59H2272l-59.31,86.3v73.21H2195.4V227.6Z"
	      transform="translate(0 0.01)"/>
	<polygon class="cls-2"
	         points="594.15 0.84 417.43 0.84 400.8 0.84 371.14 0.84 371.14 260.88 276.05 260.88 276.05 354.29 417.43 354.29 417.43 307.59 417.43 260.88 417.43 137.17 541.14 137.17 594.15 0.84"/>
	<polygon class="cls-2"
	         points="409.83 457.8 435.1 407.31 261.74 407.31 131.8 139.7 255.85 139.7 300.46 0.84 64.81 0.84 65.15 2.42 63.97 0 0 168.71 239.01 457.8 409.83 457.8"/>
</svg>
