<?xml version="1.0" encoding="utf-8"?>
<!-- Generator: Adobe Illustrator 19.2.1, SVG Export Plug-In . SVG Version: 6.00 Build 0)  -->
<svg version="1.1" id="Layer_1" xmlns="http://www.w3.org/2000/svg" xmlns:xlink="http://www.w3.org/1999/xlink" x="0px" y="0px"
	 viewBox="0 0 500 1000" style="enable-background:new 0 0 500 1000;" xml:space="preserve">
<style type="text/css">
	.st0{fill:#791DEF;}
	.st1{fill:#231F20;}
	.st2{fill:#323232;}
	.st3{fill:#FFFFFF;}
	.st4{fill:url(#SVGID_3_);}
</style>
<rect y="500" class="st0" width="500" height="250"/>
<g>
	<path class="st1" d="M190.2,288.6v-11.8h1.4l4,6l4.1-6h1.4v11.8h-1.3v-9.7l-4.2,6l-4.2-6v9.7H190.2z"/>
	<path class="st1" d="M206.8,283.8v-6.9h1.3v7c0,2.5,1.2,3.7,3.5,3.7c2.3,0,3.5-1.2,3.5-3.7v-7h1.3v6.9c0,1.6-0.4,2.9-1.2,3.7
		c-0.8,0.9-2,1.3-3.6,1.3s-2.7-0.4-3.6-1.3C207.2,286.6,206.8,285.4,206.8,283.8z"/>
	<path class="st1" d="M221.6,280c0-0.9,0.3-1.7,1-2.3c0.7-0.6,1.7-1,3.1-1c1,0,2,0.2,3,0.7v1.3c-0.9-0.5-1.8-0.7-2.8-0.7
		c-0.9,0-1.7,0.2-2.2,0.5c-0.5,0.3-0.7,0.8-0.7,1.5c0,0.4,0.2,0.7,0.5,1c0.3,0.3,0.7,0.5,1.2,0.6c0.5,0.1,1,0.3,1.6,0.5
		c0.6,0.2,1.1,0.4,1.6,0.7c0.5,0.2,0.9,0.6,1.2,1.1c0.3,0.5,0.5,1.1,0.5,1.8c0,1-0.4,1.7-1.1,2.3c-0.7,0.6-1.8,0.8-3.1,0.8
		c-1.3,0-2.4-0.3-3.5-0.8v-1.4c0.9,0.6,2.1,0.9,3.4,0.9c2,0,3-0.6,3-1.9c0-0.5-0.2-1-0.5-1.3c-0.3-0.4-0.7-0.6-1.2-0.8l-1.6-0.5
		c-0.6-0.2-1.1-0.4-1.6-0.6c-0.5-0.2-0.9-0.5-1.2-0.9C221.7,281.1,221.6,280.6,221.6,280z"/>
	<path class="st1" d="M234.6,288.6v-11.8h1.3v11.8H234.6z"/>
	<path class="st1" d="M241.1,282.7c0-4,1.8-6,5.5-6c1.3,0,2.5,0.2,3.6,0.7v1.2c-1.1-0.5-2.3-0.7-3.5-0.7c-1.5,0-2.6,0.4-3.3,1.2
		c-0.7,0.8-1,2-1,3.7c0,1.7,0.3,2.9,1,3.7c0.7,0.8,1.8,1.2,3.3,1.2c1.2,0,2.4-0.2,3.5-0.7v1.2c-1.1,0.4-2.3,0.7-3.5,0.7c0,0,0,0,0,0
		C242.9,288.8,241.1,286.8,241.1,282.7z"/>
	<path class="st1" d="M255.1,288.6v-11.8h4.3c1.3,0,2.3,0.3,3,0.9c0.7,0.6,1,1.4,1,2.5c0,0.5-0.1,1-0.2,1.4c-0.2,0.4-0.3,0.7-0.5,1
		c-0.2,0.2-0.4,0.4-0.7,0.6c-0.3,0.2-0.5,0.3-0.7,0.3c-0.2,0.1-0.3,0.1-0.5,0.1l3.2,4.9h-1.5l-3.1-4.8h-3v4.8H255.1z M256.4,282.7h3
		c0.6,0,1.1-0.1,1.5-0.2c0.4-0.1,0.7-0.3,0.9-0.6c0.2-0.2,0.3-0.5,0.4-0.7c0.1-0.2,0.1-0.5,0.1-0.8s0-0.6-0.1-0.8
		c-0.1-0.2-0.2-0.5-0.4-0.7c-0.2-0.2-0.5-0.4-0.9-0.6c-0.4-0.1-0.9-0.2-1.5-0.2h-3V282.7z"/>
	<path class="st1" d="M268.1,282.7c0-4,1.8-6,5.5-6c3.6,0,5.5,2,5.5,6c0,4-1.8,6-5.5,6C269.9,288.8,268.1,286.8,268.1,282.7z
		 M270.4,279.1c-0.7,0.8-1,2-1,3.7c0,1.7,0.3,2.9,1,3.7c0.7,0.8,1.7,1.2,3.2,1.2c1.5,0,2.5-0.4,3.2-1.2c0.7-0.8,1-2,1-3.7
		c0-1.7-0.3-2.9-1-3.7c-0.7-0.8-1.7-1.2-3.2-1.2C272.1,277.9,271.1,278.3,270.4,279.1z"/>
	<path class="st1" d="M284.2,288.6v-11.8h1.4l7,9.9v-9.9h1.3v11.8h-1.4l-7-9.9v9.9H284.2z"/>
	<path class="st1" d="M298.4,276.9h1.5l3.5,5.1l3.5-5.1h1.5l-4.4,6.4v5.4h-1.3v-5.4L298.4,276.9z"/>
</g>
<g>
	<polygon class="st0" points="279.4,212.8 261.9,212.8 260.3,212.8 257.3,212.8 257.3,238.5 247.9,238.5 247.9,247.8 261.9,247.8 
		261.9,243.1 261.9,238.5 261.9,226.3 274.2,226.3 	"/>
	<polygon class="st0" points="261.2,258 263.7,253 246.5,253 233.6,226.5 245.9,226.5 250.3,212.8 227,212.8 227,212.9 226.9,212.7 
		220.6,229.4 244.3,258 	"/>
</g>
<g>
	<g>
		<path class="st1" d="M214.2,874.3v-11.8h1.4l4,6l4.1-6h1.4v11.8h-1.3v-9.7l-4.2,6l-4.2-6v9.7H214.2z"/>
		<path class="st1" d="M230.8,869.5v-6.9h1.3v7c0,2.5,1.2,3.7,3.5,3.7c2.3,0,3.5-1.2,3.5-3.7v-7h1.3v6.9c0,1.6-0.4,2.9-1.2,3.7
			c-0.8,0.9-2,1.3-3.6,1.3c-1.5,0-2.7-0.4-3.6-1.3C231.2,872.3,230.8,871.1,230.8,869.5z"/>
		<path class="st1" d="M245.6,865.7c0-0.9,0.3-1.7,1-2.3c0.7-0.6,1.7-1,3.1-1c1,0,2,0.2,3,0.7v1.3c-0.9-0.5-1.8-0.7-2.8-0.7
			c-0.9,0-1.7,0.2-2.2,0.5c-0.5,0.3-0.7,0.8-0.7,1.5c0,0.4,0.2,0.7,0.5,1c0.3,0.3,0.7,0.5,1.2,0.6c0.5,0.1,1,0.3,1.6,0.5
			c0.6,0.2,1.1,0.4,1.6,0.7c0.5,0.2,0.9,0.6,1.2,1.1c0.3,0.5,0.5,1.1,0.5,1.8c0,1-0.4,1.7-1.1,2.3c-0.7,0.6-1.8,0.8-3.1,0.8
			c-1.3,0-2.4-0.3-3.5-0.8v-1.4c0.9,0.6,2.1,0.9,3.4,0.9c2,0,3-0.6,3-1.9c0-0.5-0.2-1-0.5-1.3c-0.3-0.4-0.7-0.6-1.2-0.8l-1.6-0.5
			c-0.6-0.2-1.1-0.4-1.6-0.6c-0.5-0.2-0.9-0.5-1.2-0.9C245.8,866.8,245.6,866.3,245.6,865.7z"/>
		<path class="st1" d="M258.6,874.3v-11.8h1.3v11.8H258.6z"/>
		<path class="st1" d="M265.1,868.4c0-4,1.8-6,5.5-6c1.3,0,2.5,0.2,3.6,0.7v1.2c-1.1-0.5-2.3-0.7-3.5-0.7c-1.5,0-2.6,0.4-3.3,1.2
			c-0.7,0.8-1,2-1,3.7c0,1.7,0.3,2.9,1,3.7c0.7,0.8,1.8,1.2,3.3,1.2c1.2,0,2.4-0.2,3.5-0.7v1.2c-1.1,0.4-2.3,0.7-3.5,0.7
			c0,0,0,0,0,0C266.9,874.5,265.1,872.4,265.1,868.4z"/>
		<path class="st1" d="M279.2,874.3v-11.8h4.3c1.3,0,2.3,0.3,3,0.9s1,1.4,1,2.5c0,0.5-0.1,1-0.2,1.4c-0.2,0.4-0.3,0.7-0.5,1
			c-0.2,0.2-0.4,0.4-0.7,0.6c-0.3,0.2-0.5,0.3-0.7,0.3c-0.2,0.1-0.3,0.1-0.5,0.1l3.2,4.9h-1.5l-3.1-4.8h-3v4.8H279.2z M280.4,868.4
			h3c0.6,0,1.1-0.1,1.5-0.2c0.4-0.1,0.7-0.3,0.9-0.6c0.2-0.2,0.3-0.5,0.4-0.7c0.1-0.2,0.1-0.5,0.1-0.8c0-0.3,0-0.6-0.1-0.8
			c-0.1-0.2-0.2-0.5-0.4-0.7c-0.2-0.2-0.5-0.4-0.9-0.6c-0.4-0.1-0.9-0.2-1.5-0.2h-3V868.4z"/>
		<path class="st1" d="M292.2,868.4c0-4,1.8-6,5.5-6c3.6,0,5.5,2,5.5,6c0,4-1.8,6-5.5,6C294,874.5,292.2,872.4,292.2,868.4z
			 M294.4,864.7c-0.7,0.8-1,2-1,3.7c0,1.7,0.3,2.9,1,3.7c0.7,0.8,1.7,1.2,3.2,1.2c1.5,0,2.5-0.4,3.2-1.2c0.7-0.8,1-2,1-3.7
			c0-1.7-0.3-2.9-1-3.7c-0.7-0.8-1.7-1.2-3.2-1.2C296.2,863.6,295.1,864,294.4,864.7z"/>
		<path class="st1" d="M308.2,874.3v-11.8h1.4l7,9.9v-9.9h1.3v11.8h-1.4l-7-9.9v9.9H308.2z"/>
		<path class="st1" d="M322.4,862.5h1.5l3.5,5.1l3.5-5.1h1.5l-4.4,6.4v5.4h-1.3v-5.4L322.4,862.5z"/>
	</g>
	<g>
		<polygon class="st0" points="208.5,852.1 195.4,852.1 194.2,852.1 192,852.1 192,871.4 185,871.4 185,878.3 195.4,878.3 
			195.4,874.8 195.4,871.4 195.4,862.2 204.6,862.2 		"/>
		<polygon class="st0" points="194.9,885.9 196.7,882.2 183.9,882.2 174.3,862.4 183.5,862.4 186.8,852.1 169.4,852.1 169.4,852.3 
			169.3,852.1 164.6,864.6 182.3,885.9 		"/>
	</g>
</g>
<g>
	<polygon class="st0" points="326.9,456.5 317.7,456.5 316.9,456.5 315.3,456.5 315.3,470 310.4,470 310.4,474.8 317.7,474.8 
		317.7,472.4 317.7,470 317.7,463.6 324.2,463.6 	"/>
	<polygon class="st0" points="317.4,480.2 318.7,477.6 309.7,477.6 302.9,463.7 309.4,463.7 311.7,456.5 299.4,456.5 299.5,456.6 
		299.4,456.5 296.1,465.2 308.5,480.2 	"/>
</g>
<g>
	
		<image style="overflow:visible;" width="256" height="256" xlink:href="music-alt-icon-256.png"  transform="matrix(0.1055 0 0 0.1055 228.5 453.5)">
	</image>
</g>
<g>
	<g>
		<defs>
			<rect id="SVGID_1_" x="165.8" y="450.1" width="30.2" height="32.8"/>
		</defs>
		<clipPath id="SVGID_2_">
			<use xlink:href="#SVGID_1_"  style="overflow:visible;"/>
		</clipPath>
		<g transform="matrix(1 0 0 1 0 3.051758e-005)" style="clip-path:url(#SVGID_2_);">
			
				<image style="overflow:visible;" width="1199" height="1300" xlink:href="C89776C6.jpg"  transform="matrix(2.522100e-002 0 0 2.522100e-002 165.76 450.1063)">
			</image>
		</g>
	</g>
</g>
<g>
	<path class="st2" d="M210.8,466.5V465h3.6v-3.5h1.4v3.5h3.5v1.5h-3.5v3.4h-1.4v-3.4H210.8z"/>
</g>
<g>
	<path class="st2" d="M269,464.8v-1.7h9.2v1.7H269z M269,468.5v-1.7h9.2v1.7H269z"/>
</g>
<path class="st3" d="M238.3,593h23.3c11.7,0,21.3,9.6,21.3,21.3v23.3c0,11.7-9.6,21.3-21.3,21.3h-23.3c-11.7,0-21.3-9.6-21.3-21.3
	v-23.3C217,602.6,226.6,593,238.3,593z"/>
<linearGradient id="SVGID_3_" gradientUnits="userSpaceOnUse" x1="249.9997" y1="657.25" x2="249.9997" y2="594.7096">
	<stop  offset="0" style="stop-color:#FFFFFF"/>
	<stop  offset="1" style="stop-color:#E6E7E8"/>
</linearGradient>
<path class="st4" d="M238.3,657.5c-10.9,0-19.8-8.9-19.8-19.8v-23.3c0-10.9,8.9-19.8,19.8-19.8h23.3c10.9,0,19.8,8.9,19.8,19.8v23.3
	c0,10.9-8.9,19.8-19.8,19.8H238.3z"/>
<g>
	<polygon class="st0" points="271.3,611.1 258.2,611.1 257,611.1 254.8,611.1 254.8,630.4 247.8,630.4 247.8,637.3 258.2,637.3 
		258.2,633.8 258.2,630.4 258.2,621.2 267.4,621.2 	"/>
	<polygon class="st0" points="257.7,645 259.6,641.2 246.7,641.2 237.1,621.4 246.3,621.4 249.6,611.1 232.1,611.1 232.2,611.2 
		232.1,611 227.3,623.5 245,645 	"/>
</g>
</svg>
